<svg width="35" height="35" viewBox="0 0 25 25" fill="none" xmlns="http://www.w3.org/2000/svg">
<path d="M5.09404 7.40555H8.09706V6.56043C8.09706 6.40481 8.2255 6.27868 8.38398 6.27868H8.63258V5.88416C8.63258 4.56883 9.72242 3.49877 11.0619 3.49877H14.8874C16.2268 3.49877 17.3165 4.56883 17.3165 5.88416V6.27868H17.5653C17.7238 6.27868 17.8522 6.40481 17.8522 6.56043V7.4057H18.9472C19.1057 7.4057 19.2341 7.53183 19.2341 7.68731C19.2341 7.84293 19.1057 7.96906 18.9472 7.96906H5.09404C4.40847 7.96906 3.85075 8.51688 3.85075 9.19009V11.6694C3.85075 12.2516 4.27307 12.7554 4.8518 12.867L11.7769 14.127H14.1725L21.0945 12.8674C21.6762 12.7554 22.0985 12.2516 22.0985 11.6694V9.18995C22.0985 8.51673 21.5408 7.96906 20.8552 7.96906H20.279C20.1205 7.96906 19.9921 7.84293 19.9921 7.68731C19.9921 7.53168 20.1205 7.40555 20.279 7.40555H20.8552C21.8572 7.40555 22.6724 8.20606 22.6724 9.18995V11.6694C22.6724 12.2602 22.3746 12.7955 21.9073 13.1227V19.5582C21.9073 20.5421 21.0921 21.3426 20.0902 21.3426H8.82391C8.66543 21.3426 8.53699 21.2165 8.53699 21.0608C8.53699 20.9052 8.66543 20.7791 8.82391 20.7791H20.0902C20.7758 20.7791 21.3335 20.2314 21.3335 19.5582V13.3903C21.2903 13.4019 21.2465 13.4123 21.2019 13.4209L14.4858 14.643V17.6018C14.4858 17.725 14.4042 17.8338 14.2844 17.8706L13.0602 18.2463C13.0323 18.2548 13.0035 18.2591 12.9746 18.2591C12.9458 18.2591 12.9169 18.2548 12.8891 18.2463L11.6649 17.8706C11.545 17.8338 11.4635 17.725 11.4635 17.6018V14.643L4.74437 13.4205C4.70087 13.4121 4.6581 13.4017 4.61578 13.3905V19.5582C4.61578 20.2316 5.1735 20.7791 5.85907 20.7791H7.48178C7.64026 20.7791 7.7687 20.9052 7.7687 21.0608C7.7687 21.2165 7.64026 21.3426 7.48178 21.3426H5.85907C4.85713 21.3426 4.04208 20.5421 4.04208 19.5582V13.1232C3.57507 12.7962 3.2769 12.2605 3.2769 11.6694V9.18995C3.2769 8.20606 4.0921 7.40555 5.09404 7.40555ZM16.7428 5.88416C16.7428 4.8795 15.9105 4.06228 14.8874 4.06228H11.0619C10.0388 4.06228 9.20643 4.8795 9.20643 5.88416V6.27868H9.85678V5.88416C9.85678 5.23173 10.3975 4.70091 11.0619 4.70091H11.6979C11.8564 4.70091 11.9848 4.82704 11.9848 4.98252C11.9848 5.13815 11.8564 5.26427 11.6979 5.26427H11.0619C10.7139 5.26427 10.4306 5.5424 10.4306 5.88416V6.27868H10.6794C10.8379 6.27868 10.9663 6.40481 10.9663 6.56043V7.4057H14.9831V6.56043C14.9831 6.40481 15.1115 6.27868 15.27 6.27868H15.5186V5.88416C15.5186 5.5424 15.2354 5.26427 14.8874 5.26427H13.032C12.8736 5.26427 12.7451 5.13815 12.7451 4.98252C12.7451 4.82704 12.8736 4.70091 13.032 4.70091H14.8874C15.5518 4.70091 16.0925 5.23173 16.0925 5.88416V6.27868H16.7428V5.88416ZM17.2784 7.40555V6.84204H15.5568V7.40555H17.2784ZM10.3925 7.40555V6.84204H8.67091V7.40555H10.3925ZM13.9119 14.6903H12.0374V15.7797H13.9119V14.6903ZM12.0374 17.3945L12.9746 17.6823L13.9119 17.3945V16.3432H12.0374V17.3945Z" fill="#92D5F4"/>
<path d="M5.09404 7.40555H8.09706V6.56043C8.09706 6.40481 8.2255 6.27868 8.38398 6.27868H8.63258V5.88416C8.63258 4.56883 9.72242 3.49877 11.0619 3.49877H14.8874C16.2268 3.49877 17.3165 4.56883 17.3165 5.88416V6.27868H17.5653C17.7238 6.27868 17.8522 6.40481 17.8522 6.56043V7.4057H18.9472C19.1057 7.4057 19.2341 7.53183 19.2341 7.68731C19.2341 7.84293 19.1057 7.96906 18.9472 7.96906H5.09404C4.40847 7.96906 3.85075 8.51688 3.85075 9.19009V11.6694C3.85075 12.2516 4.27307 12.7554 4.8518 12.867L11.7769 14.127H14.1725L21.0945 12.8674C21.6762 12.7554 22.0985 12.2516 22.0985 11.6694V9.18995C22.0985 8.51673 21.5408 7.96906 20.8552 7.96906H20.279C20.1205 7.96906 19.9921 7.84293 19.9921 7.68731C19.9921 7.53168 20.1205 7.40555 20.279 7.40555H20.8552C21.8572 7.40555 22.6724 8.20606 22.6724 9.18995V11.6694C22.6724 12.2602 22.3746 12.7955 21.9073 13.1227V19.5582C21.9073 20.5421 21.0921 21.3426 20.0902 21.3426H8.82391C8.66543 21.3426 8.53699 21.2165 8.53699 21.0608C8.53699 20.9052 8.66543 20.7791 8.82391 20.7791H20.0902C20.7758 20.7791 21.3335 20.2314 21.3335 19.5582V13.3903C21.2903 13.4019 21.2465 13.4123 21.2019 13.4209L14.4858 14.643V17.6018C14.4858 17.725 14.4042 17.8338 14.2844 17.8706L13.0602 18.2463C13.0323 18.2548 13.0035 18.2591 12.9746 18.2591C12.9458 18.2591 12.9169 18.2548 12.8891 18.2463L11.6649 17.8706C11.545 17.8338 11.4635 17.725 11.4635 17.6018V14.643L4.74437 13.4205C4.70087 13.4121 4.6581 13.4017 4.61578 13.3905V19.5582C4.61578 20.2316 5.1735 20.7791 5.85907 20.7791H7.48178C7.64026 20.7791 7.7687 20.9052 7.7687 21.0608C7.7687 21.2165 7.64026 21.3426 7.48178 21.3426H5.85907C4.85713 21.3426 4.04208 20.5421 4.04208 19.5582V13.1232C3.57507 12.7962 3.2769 12.2605 3.2769 11.6694V9.18995C3.2769 8.20606 4.0921 7.40555 5.09404 7.40555ZM16.7428 5.88416C16.7428 4.8795 15.9105 4.06228 14.8874 4.06228H11.0619C10.0388 4.06228 9.20643 4.8795 9.20643 5.88416V6.27868H9.85678V5.88416C9.85678 5.23173 10.3975 4.70091 11.0619 4.70091H11.6979C11.8564 4.70091 11.9848 4.82704 11.9848 4.98252C11.9848 5.13815 11.8564 5.26427 11.6979 5.26427H11.0619C10.7139 5.26427 10.4306 5.5424 10.4306 5.88416V6.27868H10.6794C10.8379 6.27868 10.9663 6.40481 10.9663 6.56043V7.4057H14.9831V6.56043C14.9831 6.40481 15.1115 6.27868 15.27 6.27868H15.5186V5.88416C15.5186 5.5424 15.2354 5.26427 14.8874 5.26427H13.032C12.8736 5.26427 12.7451 5.13815 12.7451 4.98252C12.7451 4.82704 12.8736 4.70091 13.032 4.70091H14.8874C15.5518 4.70091 16.0925 5.23173 16.0925 5.88416V6.27868H16.7428V5.88416ZM17.2784 7.40555V6.84204H15.5568V7.40555H17.2784ZM10.3925 7.40555V6.84204H8.67091V7.40555H10.3925ZM13.9119 14.6903H12.0374V15.7797H13.9119V14.6903ZM12.0374 17.3945L12.9746 17.6823L13.9119 17.3945V16.3432H12.0374V17.3945Z" fill="url(#paint0_linear)"/>
<defs>
<linearGradient id="paint0_linear" x1="22.3693" y1="15.3949" x2="3.94282" y2="15.3974" gradientUnits="userSpaceOnUse">
<stop stop-color="#2F80ED"/>
<stop offset="1" stop-color="#56CCF2"/>
</linearGradient>
</defs>
</svg>
