<svg width="30" height="30" viewBox="0 0 20 20" fill="none" xmlns="http://www.w3.org/2000/svg">
<g clip-path="url(#clip0)">
<path d="M18.969 12.2684L18.3284 11.9861C18.184 11.9224 18.0151 11.988 17.9515 12.1324C17.8877 12.2768 17.9533 12.4452 18.0978 12.509L18.7384 12.7918C18.7819 12.8107 18.7909 12.8375 18.7909 12.8569C18.7909 12.876 18.7819 12.9026 18.7384 12.9217L13.502 15.2309C13.4692 15.2454 13.4273 15.2454 13.3941 15.2309C11.7495 14.5056 12.2885 14.7433 10.8312 14.1005L12.7309 13.2262C13.4165 13.6417 14.5485 13.3251 14.5485 12.6271C14.5485 12.1872 14.0652 11.8425 13.4481 11.8425C12.7547 11.8425 12.2469 12.2752 12.3645 12.7654L10.1329 13.7925C9.896 13.6881 8.39479 13.0262 8.15803 12.9217C8.08774 12.8909 8.0873 12.8229 8.15803 12.7918L13.3941 10.4826C13.4273 10.4681 13.4692 10.4681 13.5023 10.4826C16.0744 11.6166 13.3373 10.41 17.0516 12.0478C17.1961 12.1115 17.3649 12.046 17.4285 11.9014C17.4922 11.757 17.4266 11.5886 17.2822 11.5245L15.215 10.6133V5.82732C15.215 5.04779 15.215 4.7107 15.215 3.91341C15.215 3.3915 14.7901 2.96932 14.271 2.96932H11.665V2.07185C11.665 1.20487 10.9596 0.499023 10.0925 0.499023H9.01214C8.85396 0.499023 8.72625 0.627022 8.72625 0.784912C8.72625 0.942949 8.85396 1.07065 9.01214 1.07065H10.0925C10.6445 1.07065 11.0934 1.52005 11.0934 2.07185V2.96932H10.6295V2.07185C10.6295 1.77575 10.3886 1.53455 10.0925 1.53455H5.12246C4.82636 1.53455 4.58516 1.77575 4.58516 2.07185V2.96932H4.12141V2.07185C4.12141 1.52005 4.57066 1.07065 5.12246 1.07065H7.86874C8.02663 1.07065 8.15463 0.942949 8.15463 0.784912C8.15463 0.627022 8.02663 0.499023 7.86874 0.499023H5.12246C4.25548 0.499023 3.54963 1.20487 3.54963 2.07185V2.96932H0.944083C0.423506 2.96932 0 3.39283 0 3.91341V10.8469C0 11.0047 0.127703 11.1327 0.285888 11.1327C0.44363 11.1327 0.571629 11.0047 0.571629 10.8469V7.61087C1.00431 8.21609 1.65081 8.65824 2.39972 8.82663V9.66491C2.39972 10.0016 2.67377 10.2756 3.01056 10.2756H3.86926C4.20605 10.2756 4.4801 10.0016 4.4801 9.66491V8.90136H10.7349V9.66491C10.7349 10.0016 11.0089 10.2756 11.3456 10.2756H12.2044C12.5412 10.2756 12.8151 10.0016 12.8151 9.66491V8.82663C13.5642 8.65838 14.2108 8.21609 14.6433 7.61087V10.361L13.7329 9.95968C13.5531 9.88036 13.3434 9.88036 13.1634 9.95968L7.92748 12.2684C7.40217 12.5001 7.40291 13.2135 7.92748 13.4449L8.92513 13.8847V14.0722H2.26535C1.33119 14.0722 0.571629 13.3127 0.571629 12.3789V11.9902C0.571629 11.8325 0.44363 11.7045 0.285888 11.7045C0.127703 11.7045 0 11.8325 0 11.9902V12.3789C0 13.6278 1.016 14.6438 2.26535 14.6438H8.92528V16.7633C8.92528 17.1837 9.2896 17.5236 9.87114 17.7805V18.1568L8.90708 19.4366C8.81208 19.5628 8.83738 19.742 8.96346 19.8369C9.08953 19.9319 9.26873 19.9067 9.36373 19.7805L9.87114 19.1069V19.6086C9.87114 19.7664 9.99914 19.8944 10.157 19.8944C10.3148 19.8944 10.4428 19.7664 10.4428 19.6086V19.1072L10.95 19.7805C11.0063 19.8552 11.0919 19.8944 11.1786 19.8944C11.4117 19.8944 11.5493 19.626 11.4067 19.4366L10.4428 18.1569V17.9873C13.1025 18.7766 17.9713 18.299 17.9713 16.7631V13.8847L18.969 13.4449C19.2118 13.3378 19.3627 13.1121 19.3627 12.8569C19.3627 12.6012 19.2118 12.3755 18.969 12.2684ZM13.4483 12.4141C13.7952 12.4141 13.9769 12.5723 13.9769 12.6271C13.9769 12.6818 13.7952 12.8399 13.4483 12.8399C13.1041 12.8399 12.9196 12.6823 12.9196 12.6271C12.9196 12.5723 13.1013 12.4141 13.4483 12.4141ZM5.15679 2.10618H10.0579V2.96932H5.15679V2.10618ZM3.90847 9.66491C3.90847 9.68637 3.89086 9.70398 3.86926 9.70398H3.01056C2.98895 9.70398 2.97135 9.68637 2.97135 9.66491V8.89958C3.00553 8.90062 3.03971 8.90136 3.07404 8.90136H3.90847V9.66491ZM3.90847 8.32973H3.07404C3.03956 8.32973 3.00553 8.3284 2.97135 8.32707V7.5465C2.97135 7.52489 2.98895 7.50728 3.01056 7.50728H3.86926C3.89086 7.50728 3.90847 7.52489 3.90847 7.5465V8.32973ZM12.2435 9.66491C12.2435 9.68637 12.226 9.70398 12.2044 9.70398H11.3457C11.3241 9.70398 11.3066 9.68637 11.3066 9.66491V8.90136H12.1411C12.1753 8.90136 12.2094 8.90077 12.2435 8.89958V9.66491ZM12.2435 8.32707C12.2094 8.3284 12.1754 8.32973 12.1411 8.32973H11.3065V7.5465C11.3065 7.52489 11.3241 7.50728 11.3456 7.50728H12.2044C12.226 7.50728 12.2435 7.52489 12.2435 7.5465V8.32707ZM12.8153 8.23665V7.54635C12.8153 7.20956 12.5412 6.93565 12.2044 6.93565H11.3457C11.0089 6.93565 10.7349 7.20956 10.7349 7.54635V8.32958H4.4801V7.54635C4.4801 7.20956 4.20605 6.93565 3.86926 6.93565H3.01056C2.67377 6.93565 2.39972 7.20956 2.39972 7.54635V8.23665C1.34643 7.94144 0.571629 6.97339 0.571629 5.82732V3.91341C0.571629 3.70802 0.738545 3.5411 0.944083 3.5411H14.271C14.4918 3.5411 14.6433 3.72193 14.6433 3.91341V5.82732C14.6433 6.97339 13.8685 7.94159 12.8153 8.23665ZM9.87114 17.1462C9.58762 16.9866 9.49691 16.8429 9.49691 16.7633C9.49691 16.4943 9.49691 14.3909 9.49691 14.137L9.87114 14.302V17.1462ZM17.3995 16.7633C17.3995 16.8871 17.1804 17.1649 16.3596 17.4196C14.7798 17.9091 12.1173 17.9336 10.4428 17.3894V14.5494C10.7147 14.6754 10.3185 14.4991 13.1636 15.7537C13.3446 15.8334 13.5514 15.8337 13.7329 15.7537L17.3995 14.137V16.7633Z" fill="#92D5F4"/>
<path d="M18.969 12.2684L18.3284 11.9861C18.184 11.9224 18.0151 11.988 17.9515 12.1324C17.8877 12.2768 17.9533 12.4452 18.0978 12.509L18.7384 12.7918C18.7819 12.8107 18.7909 12.8375 18.7909 12.8569C18.7909 12.876 18.7819 12.9026 18.7384 12.9217L13.502 15.2309C13.4692 15.2454 13.4273 15.2454 13.3941 15.2309C11.7495 14.5056 12.2885 14.7433 10.8312 14.1005L12.7309 13.2262C13.4165 13.6417 14.5485 13.3251 14.5485 12.6271C14.5485 12.1872 14.0652 11.8425 13.4481 11.8425C12.7547 11.8425 12.2469 12.2752 12.3645 12.7654L10.1329 13.7925C9.896 13.6881 8.39479 13.0262 8.15803 12.9217C8.08774 12.8909 8.0873 12.8229 8.15803 12.7918L13.3941 10.4826C13.4273 10.4681 13.4692 10.4681 13.5023 10.4826C16.0744 11.6166 13.3373 10.41 17.0516 12.0478C17.1961 12.1115 17.3649 12.046 17.4285 11.9014C17.4922 11.757 17.4266 11.5886 17.2822 11.5245L15.215 10.6133V5.82732C15.215 5.04779 15.215 4.7107 15.215 3.91341C15.215 3.3915 14.7901 2.96932 14.271 2.96932H11.665V2.07185C11.665 1.20487 10.9596 0.499023 10.0925 0.499023H9.01214C8.85396 0.499023 8.72625 0.627022 8.72625 0.784912C8.72625 0.942949 8.85396 1.07065 9.01214 1.07065H10.0925C10.6445 1.07065 11.0934 1.52005 11.0934 2.07185V2.96932H10.6295V2.07185C10.6295 1.77575 10.3886 1.53455 10.0925 1.53455H5.12246C4.82636 1.53455 4.58516 1.77575 4.58516 2.07185V2.96932H4.12141V2.07185C4.12141 1.52005 4.57066 1.07065 5.12246 1.07065H7.86874C8.02663 1.07065 8.15463 0.942949 8.15463 0.784912C8.15463 0.627022 8.02663 0.499023 7.86874 0.499023H5.12246C4.25548 0.499023 3.54963 1.20487 3.54963 2.07185V2.96932H0.944083C0.423506 2.96932 0 3.39283 0 3.91341V10.8469C0 11.0047 0.127703 11.1327 0.285888 11.1327C0.44363 11.1327 0.571629 11.0047 0.571629 10.8469V7.61087C1.00431 8.21609 1.65081 8.65824 2.39972 8.82663V9.66491C2.39972 10.0016 2.67377 10.2756 3.01056 10.2756H3.86926C4.20605 10.2756 4.4801 10.0016 4.4801 9.66491V8.90136H10.7349V9.66491C10.7349 10.0016 11.0089 10.2756 11.3456 10.2756H12.2044C12.5412 10.2756 12.8151 10.0016 12.8151 9.66491V8.82663C13.5642 8.65838 14.2108 8.21609 14.6433 7.61087V10.361L13.7329 9.95968C13.5531 9.88036 13.3434 9.88036 13.1634 9.95968L7.92748 12.2684C7.40217 12.5001 7.40291 13.2135 7.92748 13.4449L8.92513 13.8847V14.0722H2.26535C1.33119 14.0722 0.571629 13.3127 0.571629 12.3789V11.9902C0.571629 11.8325 0.44363 11.7045 0.285888 11.7045C0.127703 11.7045 0 11.8325 0 11.9902V12.3789C0 13.6278 1.016 14.6438 2.26535 14.6438H8.92528V16.7633C8.92528 17.1837 9.2896 17.5236 9.87114 17.7805V18.1568L8.90708 19.4366C8.81208 19.5628 8.83738 19.742 8.96346 19.8369C9.08953 19.9319 9.26873 19.9067 9.36373 19.7805L9.87114 19.1069V19.6086C9.87114 19.7664 9.99914 19.8944 10.157 19.8944C10.3148 19.8944 10.4428 19.7664 10.4428 19.6086V19.1072L10.95 19.7805C11.0063 19.8552 11.0919 19.8944 11.1786 19.8944C11.4117 19.8944 11.5493 19.626 11.4067 19.4366L10.4428 18.1569V17.9873C13.1025 18.7766 17.9713 18.299 17.9713 16.7631V13.8847L18.969 13.4449C19.2118 13.3378 19.3627 13.1121 19.3627 12.8569C19.3627 12.6012 19.2118 12.3755 18.969 12.2684ZM13.4483 12.4141C13.7952 12.4141 13.9769 12.5723 13.9769 12.6271C13.9769 12.6818 13.7952 12.8399 13.4483 12.8399C13.1041 12.8399 12.9196 12.6823 12.9196 12.6271C12.9196 12.5723 13.1013 12.4141 13.4483 12.4141ZM5.15679 2.10618H10.0579V2.96932H5.15679V2.10618ZM3.90847 9.66491C3.90847 9.68637 3.89086 9.70398 3.86926 9.70398H3.01056C2.98895 9.70398 2.97135 9.68637 2.97135 9.66491V8.89958C3.00553 8.90062 3.03971 8.90136 3.07404 8.90136H3.90847V9.66491ZM3.90847 8.32973H3.07404C3.03956 8.32973 3.00553 8.3284 2.97135 8.32707V7.5465C2.97135 7.52489 2.98895 7.50728 3.01056 7.50728H3.86926C3.89086 7.50728 3.90847 7.52489 3.90847 7.5465V8.32973ZM12.2435 9.66491C12.2435 9.68637 12.226 9.70398 12.2044 9.70398H11.3457C11.3241 9.70398 11.3066 9.68637 11.3066 9.66491V8.90136H12.1411C12.1753 8.90136 12.2094 8.90077 12.2435 8.89958V9.66491ZM12.2435 8.32707C12.2094 8.3284 12.1754 8.32973 12.1411 8.32973H11.3065V7.5465C11.3065 7.52489 11.3241 7.50728 11.3456 7.50728H12.2044C12.226 7.50728 12.2435 7.52489 12.2435 7.5465V8.32707ZM12.8153 8.23665V7.54635C12.8153 7.20956 12.5412 6.93565 12.2044 6.93565H11.3457C11.0089 6.93565 10.7349 7.20956 10.7349 7.54635V8.32958H4.4801V7.54635C4.4801 7.20956 4.20605 6.93565 3.86926 6.93565H3.01056C2.67377 6.93565 2.39972 7.20956 2.39972 7.54635V8.23665C1.34643 7.94144 0.571629 6.97339 0.571629 5.82732V3.91341C0.571629 3.70802 0.738545 3.5411 0.944083 3.5411H14.271C14.4918 3.5411 14.6433 3.72193 14.6433 3.91341V5.82732C14.6433 6.97339 13.8685 7.94159 12.8153 8.23665ZM9.87114 17.1462C9.58762 16.9866 9.49691 16.8429 9.49691 16.7633C9.49691 16.4943 9.49691 14.3909 9.49691 14.137L9.87114 14.302V17.1462ZM17.3995 16.7633C17.3995 16.8871 17.1804 17.1649 16.3596 17.4196C14.7798 17.9091 12.1173 17.9336 10.4428 17.3894V14.5494C10.7147 14.6754 10.3185 14.4991 13.1636 15.7537C13.3446 15.8334 13.5514 15.8337 13.7329 15.7537L17.3995 14.137V16.7633Z" fill="url(#paint0_linear)"/>
</g>
<defs>
<linearGradient id="paint0_linear" x1="0.302543" y1="13.4296" x2="18.6979" y2="13.4319" gradientUnits="userSpaceOnUse">
<stop stop-color="#2F80ED"/>
<stop offset="1" stop-color="#56CCF2"/>
</linearGradient>
<clipPath id="clip0">
<rect width="19.3955" height="19.3955" fill="white" transform="translate(0 0.499023)"/>
</clipPath>
</defs>
</svg>
