<svg width="30" height="30" viewBox="0 0 20 20" fill="none" xmlns="http://www.w3.org/2000/svg">
<g clip-path="url(#clip0)">
<path d="M15.6872 5.63623C15.8964 5.63623 16.0661 5.46659 16.0661 5.25732V1.13672C16.0661 0.509932 15.5562 0 14.9294 0H1.13721C0.51042 0 0.000488281 0.509932 0.000488281 1.13672V18.2633C0.000488281 18.8901 0.51042 19.4 1.13721 19.4H14.9294C15.5562 19.4 16.0661 18.8901 16.0661 18.2633V15.4718C16.0661 15.2625 15.8964 15.0929 15.6872 15.0929C15.478 15.0929 15.3083 15.2625 15.3083 15.4718V18.2633C15.3083 18.4722 15.1383 18.6422 14.9294 18.6422H1.13721C0.928278 18.6422 0.758301 18.4722 0.758301 18.2633V1.13672C0.758301 0.92779 0.928278 0.757812 1.13721 0.757812H14.9294C15.1383 0.757812 15.3083 0.92779 15.3083 1.13672V5.25732C15.3083 5.46659 15.478 5.63623 15.6872 5.63623Z" fill="#92D5F4"/>
<path d="M15.6872 5.63623C15.8964 5.63623 16.0661 5.46659 16.0661 5.25732V1.13672C16.0661 0.509932 15.5562 0 14.9294 0H1.13721C0.51042 0 0.000488281 0.509932 0.000488281 1.13672V18.2633C0.000488281 18.8901 0.51042 19.4 1.13721 19.4H14.9294C15.5562 19.4 16.0661 18.8901 16.0661 18.2633V15.4718C16.0661 15.2625 15.8964 15.0929 15.6872 15.0929C15.478 15.0929 15.3083 15.2625 15.3083 15.4718V18.2633C15.3083 18.4722 15.1383 18.6422 14.9294 18.6422H1.13721C0.928278 18.6422 0.758301 18.4722 0.758301 18.2633V1.13672C0.758301 0.92779 0.928278 0.757812 1.13721 0.757812H14.9294C15.1383 0.757812 15.3083 0.92779 15.3083 1.13672V5.25732C15.3083 5.46659 15.478 5.63623 15.6872 5.63623Z" fill="url(#paint0_linear)"/>
<path d="M8.0333 2.04609C6.11115 2.04609 4.54736 3.60988 4.54736 5.53203C4.54736 6.5292 4.96833 7.42978 5.64172 8.06574C5.65434 8.07923 5.66775 8.092 5.68241 8.10363C6.30272 8.67119 7.12824 9.01793 8.03326 9.01793C8.93828 9.01793 9.7638 8.67115 10.3841 8.10363C10.3988 8.092 10.4122 8.07919 10.4248 8.06574C11.0983 7.42978 11.5192 6.5292 11.5192 5.53203C11.5192 3.60988 9.95545 2.04609 8.0333 2.04609ZM8.0333 8.26015C7.41458 8.26015 6.84357 8.05282 6.3854 7.70438C6.71842 7.11385 7.33986 6.74453 8.0333 6.74453C8.72673 6.74453 9.34818 7.11385 9.6812 7.70438C9.22299 8.05282 8.65201 8.26015 8.0333 8.26015ZM7.42705 5.38047V5.13418C7.42705 4.79991 7.69903 4.52793 8.0333 4.52793C8.36757 4.52793 8.63955 4.79991 8.63955 5.13418V5.38047C8.63955 5.71474 8.36757 5.98672 8.0333 5.98672C7.69903 5.98672 7.42705 5.71474 7.42705 5.38047ZM10.2287 7.14932C9.94924 6.73487 9.56196 6.41253 9.11231 6.21353C9.29077 5.98289 9.39736 5.69397 9.39736 5.38047V5.13418C9.39736 4.38201 8.78546 3.77012 8.0333 3.77012C7.28113 3.77012 6.66924 4.38201 6.66924 5.13418V5.38047C6.66924 5.69397 6.77582 5.98289 6.95429 6.21353C6.50464 6.41253 6.11736 6.73487 5.83792 7.14932C5.50338 6.69641 5.30518 6.13703 5.30518 5.53203C5.30518 4.02773 6.529 2.80391 8.0333 2.80391C9.53759 2.80391 10.7614 4.02773 10.7614 5.53203C10.7614 6.13703 10.5632 6.69641 10.2287 7.14932Z" fill="#92D5F4"/>
<path d="M8.0333 2.04609C6.11115 2.04609 4.54736 3.60988 4.54736 5.53203C4.54736 6.5292 4.96833 7.42978 5.64172 8.06574C5.65434 8.07923 5.66775 8.092 5.68241 8.10363C6.30272 8.67119 7.12824 9.01793 8.03326 9.01793C8.93828 9.01793 9.7638 8.67115 10.3841 8.10363C10.3988 8.092 10.4122 8.07919 10.4248 8.06574C11.0983 7.42978 11.5192 6.5292 11.5192 5.53203C11.5192 3.60988 9.95545 2.04609 8.0333 2.04609ZM8.0333 8.26015C7.41458 8.26015 6.84357 8.05282 6.3854 7.70438C6.71842 7.11385 7.33986 6.74453 8.0333 6.74453C8.72673 6.74453 9.34818 7.11385 9.6812 7.70438C9.22299 8.05282 8.65201 8.26015 8.0333 8.26015ZM7.42705 5.38047V5.13418C7.42705 4.79991 7.69903 4.52793 8.0333 4.52793C8.36757 4.52793 8.63955 4.79991 8.63955 5.13418V5.38047C8.63955 5.71474 8.36757 5.98672 8.0333 5.98672C7.69903 5.98672 7.42705 5.71474 7.42705 5.38047ZM10.2287 7.14932C9.94924 6.73487 9.56196 6.41253 9.11231 6.21353C9.29077 5.98289 9.39736 5.69397 9.39736 5.38047V5.13418C9.39736 4.38201 8.78546 3.77012 8.0333 3.77012C7.28113 3.77012 6.66924 4.38201 6.66924 5.13418V5.38047C6.66924 5.69397 6.77582 5.98289 6.95429 6.21353C6.50464 6.41253 6.11736 6.73487 5.83792 7.14932C5.50338 6.69641 5.30518 6.13703 5.30518 5.53203C5.30518 4.02773 6.529 2.80391 8.0333 2.80391C9.53759 2.80391 10.7614 4.02773 10.7614 5.53203C10.7614 6.13703 10.5632 6.69641 10.2287 7.14932Z" fill="url(#paint1_linear)"/>
<path d="M10.0793 16.5961H8.0332C7.82397 16.5961 7.6543 16.7657 7.6543 16.975C7.6543 17.1843 7.82397 17.3539 8.0332 17.3539H10.0793C10.2885 17.3539 10.4582 17.1843 10.4582 16.975C10.4582 16.7657 10.2885 16.5961 10.0793 16.5961Z" fill="#92D5F4"/>
<path d="M10.0793 16.5961H8.0332C7.82397 16.5961 7.6543 16.7657 7.6543 16.975C7.6543 17.1843 7.82397 17.3539 8.0332 17.3539H10.0793C10.2885 17.3539 10.4582 17.1843 10.4582 16.975C10.4582 16.7657 10.2885 16.5961 10.0793 16.5961Z" fill="url(#paint2_linear)"/>
<path d="M10.0792 14.4742H4.69873C4.4895 14.4742 4.31982 14.6439 4.31982 14.8531C4.31982 15.0624 4.4895 15.232 4.69873 15.232H10.0792C10.2884 15.232 10.4581 15.0624 10.4581 14.8531C10.4581 14.6439 10.2884 14.4742 10.0792 14.4742Z" fill="#92D5F4"/>
<path d="M10.0792 14.4742H4.69873C4.4895 14.4742 4.31982 14.6439 4.31982 14.8531C4.31982 15.0624 4.4895 15.232 4.69873 15.232H10.0792C10.2884 15.232 10.4581 15.0624 10.4581 14.8531C10.4581 14.6439 10.2884 14.4742 10.0792 14.4742Z" fill="url(#paint3_linear)"/>
<path d="M10.0792 12.3523H4.69873C4.4895 12.3523 4.31982 12.522 4.31982 12.7313C4.31982 12.9405 4.4895 13.1102 4.69873 13.1102H10.0792C10.2884 13.1102 10.4581 12.9405 10.4581 12.7313C10.4581 12.522 10.2884 12.3523 10.0792 12.3523Z" fill="#92D5F4"/>
<path d="M10.0792 12.3523H4.69873C4.4895 12.3523 4.31982 12.522 4.31982 12.7313C4.31982 12.9405 4.4895 13.1102 4.69873 13.1102H10.0792C10.2884 13.1102 10.4581 12.9405 10.4581 12.7313C10.4581 12.522 10.2884 12.3523 10.0792 12.3523Z" fill="url(#paint4_linear)"/>
<path d="M3.34831 10.3415C3.27787 10.271 3.18011 10.2305 3.08008 10.2305C2.98039 10.2305 2.88263 10.271 2.81219 10.3415C2.74171 10.412 2.70117 10.5097 2.70117 10.6094C2.70117 10.709 2.74168 10.8068 2.81219 10.8773C2.88305 10.9477 2.98039 10.9883 3.08008 10.9883C3.18011 10.9883 3.27749 10.9477 3.34831 10.8773C3.41878 10.8068 3.45936 10.709 3.45936 10.6094C3.45936 10.5097 3.41882 10.412 3.34831 10.3415Z" fill="#92D5F4"/>
<path d="M3.34831 10.3415C3.27787 10.271 3.18011 10.2305 3.08008 10.2305C2.98039 10.2305 2.88263 10.271 2.81219 10.3415C2.74171 10.412 2.70117 10.5097 2.70117 10.6094C2.70117 10.709 2.74168 10.8068 2.81219 10.8773C2.88305 10.9477 2.98039 10.9883 3.08008 10.9883C3.18011 10.9883 3.27749 10.9477 3.34831 10.8773C3.41878 10.8068 3.45936 10.709 3.45936 10.6094C3.45936 10.5097 3.41882 10.412 3.34831 10.3415Z" fill="url(#paint5_linear)"/>
<path d="M3.34831 12.4634C3.27749 12.3929 3.18011 12.3523 3.08008 12.3523C2.98039 12.3523 2.88305 12.3929 2.81219 12.4634C2.74171 12.5338 2.70117 12.6316 2.70117 12.7313C2.70117 12.8309 2.74168 12.9287 2.81219 12.9991C2.88305 13.0696 2.98039 13.1102 3.08008 13.1102C3.18011 13.1102 3.27749 13.0696 3.34831 12.9991C3.41878 12.9287 3.45936 12.8309 3.45936 12.7313C3.45936 12.6316 3.41882 12.5338 3.34831 12.4634Z" fill="#92D5F4"/>
<path d="M3.34831 12.4634C3.27749 12.3929 3.18011 12.3523 3.08008 12.3523C2.98039 12.3523 2.88305 12.3929 2.81219 12.4634C2.74171 12.5338 2.70117 12.6316 2.70117 12.7313C2.70117 12.8309 2.74168 12.9287 2.81219 12.9991C2.88305 13.0696 2.98039 13.1102 3.08008 13.1102C3.18011 13.1102 3.27749 13.0696 3.34831 12.9991C3.41878 12.9287 3.45936 12.8309 3.45936 12.7313C3.45936 12.6316 3.41882 12.5338 3.34831 12.4634Z" fill="url(#paint6_linear)"/>
<path d="M3.34831 14.5852C3.27749 14.5148 3.18011 14.4742 3.08008 14.4742C2.98039 14.4742 2.88305 14.5148 2.81219 14.5852C2.74171 14.6557 2.70117 14.7535 2.70117 14.8531C2.70117 14.9528 2.74168 15.0505 2.81219 15.121C2.88263 15.1915 2.98039 15.232 3.08008 15.232C3.18011 15.232 3.27787 15.1915 3.34831 15.121C3.41878 15.0505 3.45936 14.9528 3.45936 14.8531C3.45936 14.7535 3.41882 14.6557 3.34831 14.5852Z" fill="#92D5F4"/>
<path d="M3.34831 14.5852C3.27749 14.5148 3.18011 14.4742 3.08008 14.4742C2.98039 14.4742 2.88305 14.5148 2.81219 14.5852C2.74171 14.6557 2.70117 14.7535 2.70117 14.8531C2.70117 14.9528 2.74168 15.0505 2.81219 15.121C2.88263 15.1915 2.98039 15.232 3.08008 15.232C3.18011 15.232 3.27787 15.1915 3.34831 15.121C3.41878 15.0505 3.45936 14.9528 3.45936 14.8531C3.45936 14.7535 3.41882 14.6557 3.34831 14.5852Z" fill="url(#paint7_linear)"/>
<path d="M10.0792 10.2305H4.69873C4.4895 10.2305 4.31982 10.4001 4.31982 10.6094C4.31982 10.8186 4.4895 10.9883 4.69873 10.9883H10.0792C10.2884 10.9883 10.4581 10.8186 10.4581 10.6094C10.4581 10.4001 10.2884 10.2305 10.0792 10.2305Z" fill="#92D5F4"/>
<path d="M10.0792 10.2305H4.69873C4.4895 10.2305 4.31982 10.4001 4.31982 10.6094C4.31982 10.8186 4.4895 10.9883 4.69873 10.9883H10.0792C10.2884 10.9883 10.4581 10.8186 10.4581 10.6094C10.4581 10.4001 10.2884 10.2305 10.0792 10.2305Z" fill="url(#paint8_linear)"/>
<path d="M18.6044 4.93782C18.2363 4.72529 17.8075 4.66883 17.3968 4.77883C16.9862 4.88887 16.643 5.1522 16.4305 5.52031L11.6623 13.7791C11.6362 13.8243 11.6197 13.8746 11.6139 13.9265L11.2782 16.9329C11.2615 17.0825 11.335 17.2278 11.4653 17.3031C11.5242 17.337 11.5895 17.3539 11.6547 17.3539C11.734 17.3539 11.813 17.329 11.8795 17.28L14.3152 15.4862C14.3573 15.4552 14.3926 15.4158 14.4187 15.3705L19.1869 7.11176C19.6256 6.35182 19.3643 5.37659 18.6044 4.93782ZM12.1274 16.1563L12.3027 14.5864L13.3993 15.2195L12.1274 16.1563ZM13.9519 14.6634L12.508 13.8298L16.3344 7.20239L17.7782 8.03598L13.9519 14.6634ZM18.5306 6.73281L18.1571 7.37972L16.7133 6.54613L17.0868 5.89922C17.1981 5.70639 17.3779 5.56847 17.5929 5.51084C17.8081 5.45317 18.0327 5.4828 18.2255 5.59412C18.4183 5.70545 18.5562 5.8852 18.6138 6.10027C18.6715 6.31533 18.6419 6.53999 18.5306 6.73281Z" fill="#92D5F4"/>
<path d="M18.6044 4.93782C18.2363 4.72529 17.8075 4.66883 17.3968 4.77883C16.9862 4.88887 16.643 5.1522 16.4305 5.52031L11.6623 13.7791C11.6362 13.8243 11.6197 13.8746 11.6139 13.9265L11.2782 16.9329C11.2615 17.0825 11.335 17.2278 11.4653 17.3031C11.5242 17.337 11.5895 17.3539 11.6547 17.3539C11.734 17.3539 11.813 17.329 11.8795 17.28L14.3152 15.4862C14.3573 15.4552 14.3926 15.4158 14.4187 15.3705L19.1869 7.11176C19.6256 6.35182 19.3643 5.37659 18.6044 4.93782ZM12.1274 16.1563L12.3027 14.5864L13.3993 15.2195L12.1274 16.1563ZM13.9519 14.6634L12.508 13.8298L16.3344 7.20239L17.7782 8.03598L13.9519 14.6634ZM18.5306 6.73281L18.1571 7.37972L16.7133 6.54613L17.0868 5.89922C17.1981 5.70639 17.3779 5.56847 17.5929 5.51084C17.8081 5.45317 18.0327 5.4828 18.2255 5.59412C18.4183 5.70545 18.5562 5.8852 18.6138 6.10027C18.6715 6.31533 18.6419 6.53999 18.5306 6.73281Z" fill="url(#paint9_linear)"/>
</g>
<defs>
<linearGradient id="paint0_linear" x1="0.251514" y1="12.9337" x2="15.5145" y2="12.9352" gradientUnits="userSpaceOnUse">
<stop stop-color="#2F80ED"/>
<stop offset="1" stop-color="#56CCF2"/>
</linearGradient>
<linearGradient id="paint1_linear" x1="4.6563" y1="6.6941" x2="11.2799" y2="6.69491" gradientUnits="userSpaceOnUse">
<stop stop-color="#2F80ED"/>
<stop offset="1" stop-color="#56CCF2"/>
</linearGradient>
<linearGradient id="paint2_linear" x1="7.69811" y1="17.1013" x2="10.3619" y2="17.1025" gradientUnits="userSpaceOnUse">
<stop stop-color="#2F80ED"/>
<stop offset="1" stop-color="#56CCF2"/>
</linearGradient>
<linearGradient id="paint3_linear" x1="4.41573" y1="14.9794" x2="10.2473" y2="14.9853" gradientUnits="userSpaceOnUse">
<stop stop-color="#2F80ED"/>
<stop offset="1" stop-color="#56CCF2"/>
</linearGradient>
<linearGradient id="paint4_linear" x1="4.41573" y1="12.8576" x2="10.2473" y2="12.8634" gradientUnits="userSpaceOnUse">
<stop stop-color="#2F80ED"/>
<stop offset="1" stop-color="#56CCF2"/>
</linearGradient>
<linearGradient id="paint5_linear" x1="2.71302" y1="10.7357" x2="3.43333" y2="10.7358" gradientUnits="userSpaceOnUse">
<stop stop-color="#2F80ED"/>
<stop offset="1" stop-color="#56CCF2"/>
</linearGradient>
<linearGradient id="paint6_linear" x1="2.71302" y1="12.8576" x2="3.43333" y2="12.8577" gradientUnits="userSpaceOnUse">
<stop stop-color="#2F80ED"/>
<stop offset="1" stop-color="#56CCF2"/>
</linearGradient>
<linearGradient id="paint7_linear" x1="2.71302" y1="14.9794" x2="3.43333" y2="14.9795" gradientUnits="userSpaceOnUse">
<stop stop-color="#2F80ED"/>
<stop offset="1" stop-color="#56CCF2"/>
</linearGradient>
<linearGradient id="paint8_linear" x1="4.41573" y1="10.7357" x2="10.2473" y2="10.7415" gradientUnits="userSpaceOnUse">
<stop stop-color="#2F80ED"/>
<stop offset="1" stop-color="#56CCF2"/>
</linearGradient>
<linearGradient id="paint9_linear" x1="11.4028" y1="13.1441" x2="19.1209" y2="13.1447" gradientUnits="userSpaceOnUse">
<stop stop-color="#2F80ED"/>
<stop offset="1" stop-color="#56CCF2"/>
</linearGradient>
<clipPath id="clip0">
<rect width="19.4" height="19.4" fill="white"/>
</clipPath>
</defs>
</svg>
