<svg width="30" height="30" viewBox="0 0 20 20" fill="none" xmlns="http://www.w3.org/2000/svg">
<g clip-path="url(#clip0)">
<path d="M11.7267 12.476C11.6736 12.4602 11.6178 12.4567 11.5633 12.4647C11.5569 12.4643 11.5505 12.4642 11.5441 12.4639C12.0359 11.9835 12.342 11.3138 12.342 10.5737V6.80076C12.342 6.59157 12.1723 6.42194 11.9631 6.42194H9.15705C7.99723 6.42194 7.05363 7.36554 7.05363 8.52536V10.5736C7.05363 11.3138 7.35971 11.9835 7.85146 12.4639C7.84509 12.4642 7.83869 12.4643 7.83233 12.4646C7.77785 12.4567 7.72198 12.4601 7.66887 12.4759C5.71053 12.6517 4.17041 14.3018 4.17041 16.3052V18.1653C4.17041 18.3745 4.34004 18.5441 4.54923 18.5441H14.8464C15.0556 18.5441 15.2252 18.3745 15.2252 18.1653V16.3052C15.2251 14.3019 13.6851 12.6518 11.7267 12.476ZM7.81119 9.05597V8.52536C7.81119 7.7833 8.41495 7.17958 9.15698 7.17958H11.5843V8.19333C11.5843 8.70557 11.1675 9.1223 10.6553 9.1223H7.81119V9.05597ZM7.81119 10.5737V9.87994H10.6553C10.9984 9.87994 11.3176 9.77671 11.5843 9.60007V10.5736C11.5843 11.6139 10.7379 12.4602 9.6977 12.4602C8.65747 12.4602 7.81119 11.6139 7.81119 10.5737ZM10.7038 13.2178L9.69774 14.2239L8.69168 13.2178H10.7038ZM14.4675 17.7865H4.92797V16.6962H8.01927C8.22846 16.6962 8.39809 16.5266 8.39809 16.3174C8.39809 16.1082 8.22846 15.9386 8.01927 15.9386H4.95051C5.11795 14.5306 6.23618 13.4109 7.64341 13.241L9.42988 15.0275C9.50386 15.1014 9.6008 15.1385 9.69774 15.1385C9.79468 15.1385 9.89162 15.1014 9.9656 15.0275L11.7521 13.241C13.2796 13.4254 14.4675 14.7288 14.4675 16.3052V17.7865Z" fill="#92D5F4"/>
<path d="M11.7267 12.476C11.6736 12.4602 11.6178 12.4567 11.5633 12.4647C11.5569 12.4643 11.5505 12.4642 11.5441 12.4639C12.0359 11.9835 12.342 11.3138 12.342 10.5737V6.80076C12.342 6.59157 12.1723 6.42194 11.9631 6.42194H9.15705C7.99723 6.42194 7.05363 7.36554 7.05363 8.52536V10.5736C7.05363 11.3138 7.35971 11.9835 7.85146 12.4639C7.84509 12.4642 7.83869 12.4643 7.83233 12.4646C7.77785 12.4567 7.72198 12.4601 7.66887 12.4759C5.71053 12.6517 4.17041 14.3018 4.17041 16.3052V18.1653C4.17041 18.3745 4.34004 18.5441 4.54923 18.5441H14.8464C15.0556 18.5441 15.2252 18.3745 15.2252 18.1653V16.3052C15.2251 14.3019 13.6851 12.6518 11.7267 12.476ZM7.81119 9.05597V8.52536C7.81119 7.7833 8.41495 7.17958 9.15698 7.17958H11.5843V8.19333C11.5843 8.70557 11.1675 9.1223 10.6553 9.1223H7.81119V9.05597ZM7.81119 10.5737V9.87994H10.6553C10.9984 9.87994 11.3176 9.77671 11.5843 9.60007V10.5736C11.5843 11.6139 10.7379 12.4602 9.6977 12.4602C8.65747 12.4602 7.81119 11.6139 7.81119 10.5737ZM10.7038 13.2178L9.69774 14.2239L8.69168 13.2178H10.7038ZM14.4675 17.7865H4.92797V16.6962H8.01927C8.22846 16.6962 8.39809 16.5266 8.39809 16.3174C8.39809 16.1082 8.22846 15.9386 8.01927 15.9386H4.95051C5.11795 14.5306 6.23618 13.4109 7.64341 13.241L9.42988 15.0275C9.50386 15.1014 9.6008 15.1385 9.69774 15.1385C9.79468 15.1385 9.89162 15.1014 9.9656 15.0275L11.7521 13.241C13.2796 13.4254 14.4675 14.7288 14.4675 16.3052V17.7865Z" fill="url(#paint0_linear)"/>
<path d="M9.96545 16.0496C9.89503 15.9792 9.79729 15.9386 9.69767 15.9386C9.59804 15.9386 9.5003 15.9792 9.42984 16.0496C9.35938 16.1201 9.31885 16.2178 9.31885 16.3174C9.31885 16.4171 9.35934 16.5148 9.42984 16.5853C9.5003 16.6557 9.59804 16.6963 9.69767 16.6963C9.79729 16.6963 9.89503 16.6557 9.96545 16.5853C10.0359 16.5148 10.0765 16.4171 10.0765 16.3174C10.0765 16.2178 10.0359 16.1201 9.96545 16.0496Z" fill="#92D5F4"/>
<path d="M9.96545 16.0496C9.89503 15.9792 9.79729 15.9386 9.69767 15.9386C9.59804 15.9386 9.5003 15.9792 9.42984 16.0496C9.35938 16.1201 9.31885 16.2178 9.31885 16.3174C9.31885 16.4171 9.35934 16.5148 9.42984 16.5853C9.5003 16.6557 9.59804 16.6963 9.69767 16.6963C9.79729 16.6963 9.89503 16.6557 9.96545 16.5853C10.0359 16.5148 10.0765 16.4171 10.0765 16.3174C10.0765 16.2178 10.0359 16.1201 9.96545 16.0496Z" fill="url(#paint1_linear)"/>
<path d="M9.7027 1.19426C8.90896 1.19426 8.26318 1.84003 8.26318 2.63376C8.26318 3.29639 8.71337 3.85556 9.32388 4.02232V4.94751C9.32388 5.15669 9.49351 5.32632 9.7027 5.32632C9.91188 5.32632 10.0815 5.15669 10.0815 4.94751V4.02232C10.692 3.85556 11.1422 3.29639 11.1422 2.63376C11.1422 1.84003 10.4964 1.19426 9.7027 1.19426ZM9.7027 3.31563C9.32672 3.31563 9.02082 3.00974 9.02082 2.63376C9.02082 2.25779 9.32672 1.95189 9.7027 1.95189C10.0787 1.95189 10.3846 2.25779 10.3846 2.63376C10.3846 3.00974 10.0787 3.31563 9.7027 3.31563Z" fill="#92D5F4"/>
<path d="M9.7027 1.19426C8.90896 1.19426 8.26318 1.84003 8.26318 2.63376C8.26318 3.29639 8.71337 3.85556 9.32388 4.02232V4.94751C9.32388 5.15669 9.49351 5.32632 9.7027 5.32632C9.91188 5.32632 10.0815 5.15669 10.0815 4.94751V4.02232C10.692 3.85556 11.1422 3.29639 11.1422 2.63376C11.1422 1.84003 10.4964 1.19426 9.7027 1.19426ZM9.7027 3.31563C9.32672 3.31563 9.02082 3.00974 9.02082 2.63376C9.02082 2.25779 9.32672 1.95189 9.7027 1.95189C10.0787 1.95189 10.3846 2.25779 10.3846 2.63376C10.3846 3.00974 10.0787 3.31563 9.7027 3.31563Z" fill="url(#paint2_linear)"/>
<path d="M17.3077 4.149C17.0358 3.87712 16.6743 3.72737 16.2898 3.72737C15.9053 3.72737 15.5438 3.87712 15.2719 4.14903C14.8034 4.61759 14.7263 5.33129 15.0401 5.88091L14.3858 6.53513C14.2379 6.68306 14.2379 6.92293 14.3858 7.07089C14.4599 7.1448 14.5568 7.18181 14.6538 7.18181C14.7507 7.18181 14.8476 7.1448 14.9216 7.07085L15.5755 6.41694C15.7907 6.54032 16.0351 6.60642 16.2898 6.60642C16.6743 6.60642 17.0358 6.45668 17.3076 6.1848C17.5796 5.91292 17.7293 5.55142 17.7293 5.16692C17.7293 4.78242 17.5796 4.42091 17.3077 4.149ZM16.772 5.64911C16.5061 5.91497 16.0735 5.91497 15.8077 5.64911C15.5418 5.38322 15.5418 4.95061 15.8077 4.68476C15.9406 4.55179 16.1152 4.48535 16.2898 4.48535C16.4645 4.48535 16.6391 4.55179 16.772 4.68476C16.9008 4.81355 16.9717 4.98478 16.9717 5.16695C16.9717 5.34909 16.9008 5.52032 16.772 5.64911Z" fill="#92D5F4"/>
<path d="M17.3077 4.149C17.0358 3.87712 16.6743 3.72737 16.2898 3.72737C15.9053 3.72737 15.5438 3.87712 15.2719 4.14903C14.8034 4.61759 14.7263 5.33129 15.0401 5.88091L14.3858 6.53513C14.2379 6.68306 14.2379 6.92293 14.3858 7.07089C14.4599 7.1448 14.5568 7.18181 14.6538 7.18181C14.7507 7.18181 14.8476 7.1448 14.9216 7.07085L15.5755 6.41694C15.7907 6.54032 16.0351 6.60642 16.2898 6.60642C16.6743 6.60642 17.0358 6.45668 17.3076 6.1848C17.5796 5.91292 17.7293 5.55142 17.7293 5.16692C17.7293 4.78242 17.5796 4.42091 17.3077 4.149ZM16.772 5.64911C16.5061 5.91497 16.0735 5.91497 15.8077 5.64911C15.5418 5.38322 15.5418 4.95061 15.8077 4.68476C15.9406 4.55179 16.1152 4.48535 16.2898 4.48535C16.4645 4.48535 16.6391 4.55179 16.772 4.68476C16.9008 4.81355 16.9717 4.98478 16.9717 5.16695C16.9717 5.34909 16.9008 5.52032 16.772 5.64911Z" fill="url(#paint3_linear)"/>
<path d="M17.9562 10.3175C17.2936 10.3175 16.7344 10.7677 16.5677 11.3782H15.6425C15.4333 11.3782 15.2637 11.5478 15.2637 11.757C15.2637 11.9662 15.4333 12.1358 15.6425 12.1358H16.5677C16.7344 12.7463 17.2936 13.1965 17.9562 13.1965C18.75 13.1965 19.3957 12.5507 19.3957 11.757C19.3957 10.9632 18.75 10.3175 17.9562 10.3175ZM17.9562 12.4388C17.5803 12.4388 17.2744 12.133 17.2744 11.757C17.2744 11.381 17.5803 11.0751 17.9562 11.0751C18.3322 11.0751 18.6381 11.381 18.6381 11.757C18.6381 12.133 18.3322 12.4388 17.9562 12.4388Z" fill="#92D5F4"/>
<path d="M17.9562 10.3175C17.2936 10.3175 16.7344 10.7677 16.5677 11.3782H15.6425C15.4333 11.3782 15.2637 11.5478 15.2637 11.757C15.2637 11.9662 15.4333 12.1358 15.6425 12.1358H16.5677C16.7344 12.7463 17.2936 13.1965 17.9562 13.1965C18.75 13.1965 19.3957 12.5507 19.3957 11.757C19.3957 10.9632 18.75 10.3175 17.9562 10.3175ZM17.9562 12.4388C17.5803 12.4388 17.2744 12.133 17.2744 11.757C17.2744 11.381 17.5803 11.0751 17.9562 11.0751C18.3322 11.0751 18.6381 11.381 18.6381 11.757C18.6381 12.133 18.3322 12.4388 17.9562 12.4388Z" fill="url(#paint4_linear)"/>
<path d="M14.4733 11.4889C14.4028 11.4185 14.3051 11.3779 14.2055 11.3779C14.1058 11.3779 14.0081 11.4184 13.9377 11.4889C13.8672 11.5594 13.8267 11.6571 13.8267 11.7567C13.8267 11.8567 13.8672 11.9541 13.9377 12.0245C14.0081 12.0954 14.1058 12.1356 14.2055 12.1356C14.3051 12.1356 14.4028 12.0954 14.4733 12.0245C14.5437 11.9541 14.5843 11.8564 14.5843 11.7567C14.5843 11.6571 14.5438 11.5598 14.4733 11.4889Z" fill="#92D5F4"/>
<path d="M14.4733 11.4889C14.4028 11.4185 14.3051 11.3779 14.2055 11.3779C14.1058 11.3779 14.0081 11.4184 13.9377 11.4889C13.8672 11.5594 13.8267 11.6571 13.8267 11.7567C13.8267 11.8567 13.8672 11.9541 13.9377 12.0245C14.0081 12.0954 14.1058 12.1356 14.2055 12.1356C14.3051 12.1356 14.4028 12.0954 14.4733 12.0245C14.5437 11.9541 14.5843 11.8564 14.5843 11.7567C14.5843 11.6571 14.5438 11.5598 14.4733 11.4889Z" fill="url(#paint5_linear)"/>
<path d="M3.75325 11.3684H2.82806C2.66131 10.7579 2.10213 10.3077 1.43951 10.3077C0.64577 10.3077 0 10.9535 0 11.7472C0 12.541 0.64577 13.1867 1.43951 13.1867C2.10213 13.1867 2.66131 12.7365 2.82806 12.126H3.75325C3.96243 12.126 4.13207 11.9564 4.13207 11.7472C4.13207 11.538 3.96247 11.3684 3.75325 11.3684ZM1.43951 12.4291C1.06353 12.4291 0.757635 12.1232 0.757635 11.7472C0.757635 11.3712 1.06353 11.0654 1.43951 11.0654C1.81548 11.0654 2.12138 11.3712 2.12138 11.7472C2.12138 12.1232 1.81548 12.4291 1.43951 12.4291Z" fill="#92D5F4"/>
<path d="M3.75325 11.3684H2.82806C2.66131 10.7579 2.10213 10.3077 1.43951 10.3077C0.64577 10.3077 0 10.9535 0 11.7472C0 12.541 0.64577 13.1867 1.43951 13.1867C2.10213 13.1867 2.66131 12.7365 2.82806 12.126H3.75325C3.96243 12.126 4.13207 11.9564 4.13207 11.7472C4.13207 11.538 3.96247 11.3684 3.75325 11.3684ZM1.43951 12.4291C1.06353 12.4291 0.757635 12.1232 0.757635 11.7472C0.757635 11.3712 1.06353 11.0654 1.43951 11.0654C1.81548 11.0654 2.12138 11.3712 2.12138 11.7472C2.12138 12.1232 1.81548 12.4291 1.43951 12.4291Z" fill="url(#paint6_linear)"/>
<path d="M4.98682 6.49863L4.3329 5.84475C4.45632 5.62959 4.52238 5.38517 4.52238 5.13046C4.52238 4.74596 4.37264 4.38445 4.10072 4.11253C3.82881 3.84066 3.46734 3.69091 3.08284 3.69091C2.69834 3.69091 2.33687 3.84066 2.06496 4.11257C1.50374 4.67383 1.50374 5.58708 2.06496 6.14834C2.33687 6.42022 2.69834 6.56996 3.08288 6.56996C3.33759 6.56996 3.58201 6.50386 3.79718 6.38048L4.45109 7.03439C4.52507 7.10834 4.62201 7.14535 4.71895 7.14535C4.81589 7.14535 4.91283 7.10834 4.98682 7.03439C5.13474 6.88646 5.13474 6.6466 4.98682 6.49863ZM3.56523 5.61246C3.56519 5.61254 3.56511 5.61258 3.56504 5.61265C3.29918 5.87858 2.86657 5.87858 2.60076 5.61265C2.33486 5.34676 2.33486 4.91415 2.60072 4.6483C2.73365 4.51537 2.90824 4.44889 3.08288 4.44889C3.25751 4.44889 3.43211 4.51537 3.56504 4.6483C3.69383 4.77709 3.76479 4.94832 3.76479 5.13049C3.76479 5.31252 3.69387 5.4837 3.56523 5.61246Z" fill="#92D5F4"/>
<path d="M4.98682 6.49863L4.3329 5.84475C4.45632 5.62959 4.52238 5.38517 4.52238 5.13046C4.52238 4.74596 4.37264 4.38445 4.10072 4.11253C3.82881 3.84066 3.46734 3.69091 3.08284 3.69091C2.69834 3.69091 2.33687 3.84066 2.06496 4.11257C1.50374 4.67383 1.50374 5.58708 2.06496 6.14834C2.33687 6.42022 2.69834 6.56996 3.08288 6.56996C3.33759 6.56996 3.58201 6.50386 3.79718 6.38048L4.45109 7.03439C4.52507 7.10834 4.62201 7.14535 4.71895 7.14535C4.81589 7.14535 4.91283 7.10834 4.98682 7.03439C5.13474 6.88646 5.13474 6.6466 4.98682 6.49863ZM3.56523 5.61246C3.56519 5.61254 3.56511 5.61258 3.56504 5.61265C3.29918 5.87858 2.86657 5.87858 2.60076 5.61265C2.33486 5.34676 2.33486 4.91415 2.60072 4.6483C2.73365 4.51537 2.90824 4.44889 3.08288 4.44889C3.25751 4.44889 3.43211 4.51537 3.56504 4.6483C3.69383 4.77709 3.76479 4.94832 3.76479 5.13049C3.76479 5.31252 3.69387 5.4837 3.56523 5.61246Z" fill="url(#paint7_linear)"/>
</g>
<defs>
<linearGradient id="paint0_linear" x1="4.34314" y1="14.5036" x2="14.8457" y2="14.5048" gradientUnits="userSpaceOnUse">
<stop stop-color="#2F80ED"/>
<stop offset="1" stop-color="#56CCF2"/>
</linearGradient>
<linearGradient id="paint1_linear" x1="9.33069" y1="16.4437" x2="10.0505" y2="16.4438" gradientUnits="userSpaceOnUse">
<stop stop-color="#2F80ED"/>
<stop offset="1" stop-color="#56CCF2"/>
</linearGradient>
<linearGradient id="paint2_linear" x1="8.30817" y1="3.94904" x2="11.0434" y2="3.94927" gradientUnits="userSpaceOnUse">
<stop stop-color="#2F80ED"/>
<stop offset="1" stop-color="#56CCF2"/>
</linearGradient>
<linearGradient id="paint3_linear" x1="14.3289" y1="6.03039" x2="17.6107" y2="6.03079" gradientUnits="userSpaceOnUse">
<stop stop-color="#2F80ED"/>
<stop offset="1" stop-color="#56CCF2"/>
</linearGradient>
<linearGradient id="paint4_linear" x1="15.3282" y1="12.2369" x2="19.2539" y2="12.2376" gradientUnits="userSpaceOnUse">
<stop stop-color="#2F80ED"/>
<stop offset="1" stop-color="#56CCF2"/>
</linearGradient>
<linearGradient id="paint5_linear" x1="13.8385" y1="11.883" x2="14.5583" y2="11.8831" gradientUnits="userSpaceOnUse">
<stop stop-color="#2F80ED"/>
<stop offset="1" stop-color="#56CCF2"/>
</linearGradient>
<linearGradient id="paint6_linear" x1="0.0645635" y1="12.2271" x2="3.9902" y2="12.2278" gradientUnits="userSpaceOnUse">
<stop stop-color="#2F80ED"/>
<stop offset="1" stop-color="#56CCF2"/>
</linearGradient>
<linearGradient id="paint7_linear" x1="1.69801" y1="5.99393" x2="4.97918" y2="5.99433" gradientUnits="userSpaceOnUse">
<stop stop-color="#2F80ED"/>
<stop offset="1" stop-color="#56CCF2"/>
</linearGradient>
<clipPath id="clip0">
<rect width="19.3955" height="19.3955" fill="white" transform="translate(0 0.171448)"/>
</clipPath>
</defs>
</svg>
